# Blender v2.72 (sub 0) OBJ File: 'immeubles.blend'
# www.blender.org
mtllib immeubles.mtl
o Cube.024_Cube.025
v 1.300000 0.000000 -3.400000
v 1.300000 0.000000 -5.400001
v 2.300000 0.000000 -5.400001
v 2.300000 0.000000 -3.400000
v 1.300000 1.000000 -3.400000
v 1.300000 1.000000 -5.400001
v 2.300000 1.000000 -5.400001
v 2.300000 1.000000 -3.400000
vn -1.000000 0.000000 0.000000
vn 0.000000 0.000000 -1.000000
vn 1.000000 0.000000 0.000000
vn 0.000000 0.000000 1.000000
vn 0.000000 -1.000000 0.000000
vn 0.000000 1.000000 0.000000
usemtl Beton
s off
f 5//1 6//1 2//1 1//1
f 6//2 7//2 3//2 2//2
f 7//3 8//3 4//3 3//3
f 8//4 5//4 1//4 4//4
f 1//5 2//5 3//5 4//5
f 8//6 7//6 6//6 5//6
o Cube.023_Cube.024
v -1.290735 -0.001126 -5.735797
v -0.290735 -0.001126 -5.735797
v -0.290735 -0.001126 -4.735797
v -1.290735 -0.001126 -4.735797
v -1.290735 2.998874 -5.735797
v -0.290735 2.998874 -5.735797
v -0.290735 2.998874 -4.735797
v -1.290735 2.998874 -4.735797
vn 0.000000 0.000000 -1.000000
vn 1.000000 0.000000 -0.000000
vn 0.000000 0.000000 1.000000
vn -1.000000 0.000000 0.000000
vn 0.000000 -1.000000 0.000000
vn 0.000000 1.000000 0.000000
usemtl Beton
s off
f 13//7 14//7 10//7 9//7
f 14//8 15//8 11//8 10//8
f 15//9 16//9 12//9 11//9
f 16//10 13//10 9//10 12//10
f 9//11 10//11 11//11 12//11
f 16//12 15//12 14//12 13//12
o Cube.022_Cube.023
v -0.096465 -0.001126 -5.023194
v 0.903535 -0.001126 -5.023194
v 0.903535 -0.001126 -4.023194
v -0.096465 -0.001126 -4.023194
v -0.096465 2.998874 -5.023194
v 0.903535 2.998874 -5.023194
v 0.903535 2.998874 -4.023194
v -0.096465 2.998874 -4.023194
vn 0.000000 0.000000 -1.000000
vn 1.000000 0.000000 -0.000000
vn 0.000000 0.000000 1.000000
vn -1.000000 0.000000 0.000000
vn 0.000000 -1.000000 -0.000000
vn 0.000000 1.000000 -0.000000
usemtl Beton
s off
f 21//13 22//13 18//13 17//13
f 22//14 23//14 19//14 18//14
f 23//15 24//15 20//15 19//15
f 24//16 21//16 17//16 20//16
f 17//17 18//17 19//17 20//17
f 24//18 23//18 22//18 21//18
o Cube.020_Cube.021
v -1.489867 -0.001126 -4.393285
v -0.489867 -0.001126 -4.393285
v -0.489867 -0.001126 -3.393285
v -1.489867 -0.001126 -3.393285
v -1.489867 2.998874 -4.393285
v -0.489867 2.998874 -4.393285
v -0.489867 2.998874 -3.393285
v -1.489867 2.998874 -3.393285
vn 0.000000 0.000000 -1.000000
vn 1.000000 0.000000 -0.000000
vn 0.000000 0.000000 1.000000
vn -1.000000 0.000000 0.000000
vn 0.000000 -1.000000 0.000000
vn 0.000000 1.000000 0.000000
usemtl Beton
s off
f 29//19 30//19 26//19 25//19
f 30//20 31//20 27//20 26//20
f 31//21 32//21 28//21 27//21
f 32//22 29//22 25//22 28//22
f 25//23 26//23 27//23 28//23
f 32//24 31//24 30//24 29//24
o Cube.019_Cube.020
v -1.089867 -0.001126 2.719912
v -0.089867 -0.001126 2.719912
v -0.089867 -0.001126 3.719912
v -1.089867 -0.001126 3.719912
v -1.089867 2.998874 2.719912
v -0.089867 2.998874 2.719912
v -0.089867 2.998874 3.719912
v -1.089867 2.998874 3.719912
vn -0.000000 0.000000 -1.000000
vn 1.000000 0.000000 -0.000000
vn 0.000000 0.000000 1.000000
vn -1.000000 0.000000 0.000000
vn 0.000000 -1.000000 0.000000
vn 0.000000 1.000000 0.000000
usemtl Beton
s off
f 37//25 38//25 34//25 33//25
f 38//26 39//26 35//26 34//26
f 39//27 40//27 36//27 35//27
f 40//28 37//28 33//28 36//28
f 33//29 34//29 35//29 36//29
f 40//30 39//30 38//30 37//30
o Cube.018_Cube.019
v -1.089867 -0.001126 1.519912
v -0.089867 -0.001126 1.519912
v -0.089867 -0.001126 2.519912
v -1.089867 -0.001126 2.519912
v -1.089867 2.998874 1.519912
v -0.089867 2.998874 1.519912
v -0.089867 2.998874 2.519912
v -1.089867 2.998874 2.519912
vn -0.000000 0.000000 -1.000000
vn 1.000000 0.000000 -0.000000
vn 0.000000 0.000000 1.000000
vn -1.000000 0.000000 0.000000
vn 0.000000 -1.000000 0.000000
vn 0.000000 1.000000 0.000000
usemtl Beton
s off
f 45//31 46//31 42//31 41//31
f 46//32 47//32 43//32 42//32
f 47//33 48//33 44//33 43//33
f 48//34 45//34 41//34 44//34
f 41//35 42//35 43//35 44//35
f 48//36 47//36 46//36 45//36
o Cube.017_Cube.018
v -1.089867 -0.001126 0.219912
v -0.089867 -0.001126 0.219911
v -0.089867 -0.001126 1.219911
v -1.089867 -0.001126 1.219912
v -1.089867 2.998874 0.219912
v -0.089867 2.998874 0.219911
v -0.089867 2.998874 1.219911
v -1.089867 2.998874 1.219912
vn -0.000000 0.000000 -1.000000
vn 1.000000 0.000000 -0.000000
vn 0.000000 0.000000 1.000000
vn -1.000000 0.000000 0.000000
vn 0.000000 -1.000000 0.000000
vn 0.000000 1.000000 0.000000
usemtl Beton
s off
f 53//37 54//37 50//37 49//37
f 54//38 55//38 51//38 50//38
f 55//39 56//39 52//39 51//39
f 56//40 53//40 49//40 52//40
f 49//41 50//41 51//41 52//41
f 56//42 55//42 54//42 53//42
o Cube.016_Cube.017
v 4.410133 -0.001126 -2.080088
v 5.410133 -0.001126 -2.080089
v 5.410133 -0.001126 -1.080088
v 4.410133 -0.001126 -1.080088
v 4.410133 2.998874 -2.080088
v 5.410133 2.998874 -2.080089
v 5.410133 2.998874 -1.080088
v 4.410133 2.998874 -1.080088
vn -0.000000 0.000000 -1.000000
vn 1.000000 0.000000 0.000000
vn 0.000000 0.000000 1.000000
vn -1.000000 0.000000 0.000000
vn 0.000000 -1.000000 0.000000
vn 0.000000 1.000000 0.000000
usemtl Beton
s off
f 61//43 62//43 58//43 57//43
f 62//44 63//44 59//44 58//44
f 63//45 64//45 60//45 59//45
f 64//46 61//46 57//46 60//46
f 57//47 58//47 59//47 60//47
f 64//48 63//48 62//48 61//48
o Cube.015_Cube.016
v 3.300000 -0.001126 -4.800001
v 5.300000 -0.001126 -4.800001
v 5.300000 -0.001126 -3.800001
v 3.300000 -0.001126 -3.800001
v 3.300000 1.998874 -4.800001
v 5.300000 1.998874 -4.800001
v 5.300000 1.998874 -3.800001
v 3.300000 1.998874 -3.800001
vn 0.000000 0.000000 -1.000000
vn 1.000000 0.000000 0.000000
vn 0.000000 0.000000 1.000000
vn -1.000000 0.000000 0.000000
vn 0.000000 -1.000000 0.000000
vn 0.000000 1.000000 0.000000
usemtl Beton
s off
f 69//49 70//49 66//49 65//49
f 70//50 71//50 67//50 66//50
f 71//51 72//51 68//51 67//51
f 72//52 69//52 65//52 68//52
f 65//53 66//53 67//53 68//53
f 72//54 71//54 70//54 69//54
o Cube.014_Cube.015
v 2.600000 -0.001126 -3.500001
v 4.600000 -0.001126 -3.500001
v 4.600000 -0.001126 -2.500001
v 2.600000 -0.001126 -2.500001
v 2.600000 1.998874 -3.500001
v 4.600000 1.998874 -3.500001
v 4.600000 1.998874 -2.500001
v 2.600000 1.998874 -2.500001
vn -0.000000 0.000000 -1.000000
vn 1.000000 0.000000 0.000000
vn 0.000000 0.000000 1.000000
vn -1.000000 0.000000 0.000000
vn 0.000000 -1.000000 0.000000
vn 0.000000 1.000000 0.000000
usemtl Beton
s off
f 77//55 78//55 74//55 73//55
f 78//56 79//56 75//56 74//56
f 79//57 80//57 76//57 75//57
f 80//58 77//58 73//58 76//58
f 73//59 74//59 75//59 76//59
f 80//60 79//60 78//60 77//60
o Cube.013_Cube.014
v 2.100000 -0.001126 -2.200001
v 4.100000 -0.001126 -2.200001
v 4.100000 -0.001126 -1.200001
v 2.100000 -0.001126 -1.200001
v 2.100000 1.998874 -2.200001
v 4.100000 1.998874 -2.200001
v 4.100000 1.998874 -1.200001
v 2.100000 1.998874 -1.200001
vn -0.000000 0.000000 -1.000000
vn 1.000000 0.000000 0.000000
vn 0.000000 0.000000 1.000000
vn -1.000000 0.000000 0.000000
vn 0.000000 -1.000000 0.000000
vn 0.000000 1.000000 0.000000
usemtl Beton
s off
f 85//61 86//61 82//61 81//61
f 86//62 87//62 83//62 82//62
f 87//63 88//63 84//63 83//63
f 88//64 85//64 81//64 84//64
f 81//65 82//65 83//65 84//65
f 88//66 87//66 86//66 85//66
o Cube.012_Cube.013
v -2.900001 0.000000 -2.800001
v -2.900001 0.000000 -4.800001
v -1.900001 0.000000 -4.800001
v -1.900001 0.000000 -2.800001
v -2.900001 1.000000 -2.800001
v -2.900001 1.000000 -4.800001
v -1.900001 1.000000 -4.800001
v -1.900001 1.000000 -2.800001
vn -1.000000 0.000000 0.000000
vn 0.000000 0.000000 -1.000000
vn 1.000000 0.000000 0.000000
vn 0.000000 0.000000 1.000000
vn 0.000000 -1.000000 0.000000
vn 0.000000 1.000000 0.000000
usemtl Beton
s off
f 93//67 94//67 90//67 89//67
f 94//68 95//68 91//68 90//68
f 95//69 96//69 92//69 91//69
f 96//70 93//70 89//70 92//70
f 89//71 90//71 91//71 92//71
f 96//72 95//72 94//72 93//72
o Cube.011_Cube.012
v 1.300000 0.000000 5.599999
v 1.300000 0.000000 3.599999
v 2.300000 0.000000 3.599999
v 2.300000 0.000000 5.599999
v 1.300000 1.000000 5.599999
v 1.300000 1.000000 3.599999
v 2.300000 1.000000 3.599999
v 2.300000 1.000000 5.599999
vn -1.000000 0.000000 0.000000
vn 0.000000 0.000000 -1.000000
vn 1.000000 0.000000 0.000000
vn 0.000000 0.000000 1.000000
vn 0.000000 -1.000000 0.000000
vn 0.000000 1.000000 0.000000
usemtl Beton
s off
f 101//73 102//73 98//73 97//73
f 102//74 103//74 99//74 98//74
f 103//75 104//75 100//75 99//75
f 104//76 101//76 97//76 100//76
f 97//77 98//77 99//77 100//77
f 104//78 103//78 102//78 101//78
o Cube.010_Cube.011
v -3.400000 0.000000 3.600000
v -1.400000 0.000000 3.600000
v -1.400000 0.000000 4.600000
v -3.400000 0.000000 4.600000
v -3.400000 3.000000 3.600000
v -1.400000 3.000000 3.600000
v -1.400000 3.000000 4.600000
v -3.400000 3.000000 4.600000
vn -0.000000 0.000000 -1.000000
vn 1.000000 0.000000 0.000000
vn 0.000000 0.000000 1.000000
vn -1.000000 0.000000 0.000000
vn 0.000000 -1.000000 0.000000
vn 0.000000 1.000000 0.000000
usemtl Beton
s off
f 109//79 110//79 106//79 105//79
f 110//80 111//80 107//80 106//80
f 111//81 112//81 108//81 107//81
f 112//82 109//82 105//82 108//82
f 105//83 106//83 107//83 108//83
f 112//84 111//84 110//84 109//84
o Cube.009_Cube.010
v -1.000000 -0.001126 4.000000
v 1.000000 -0.001126 4.000000
v 1.000000 -0.001126 5.000000
v -1.000000 -0.001126 5.000000
v -1.000000 1.998874 4.000000
v 1.000000 1.998874 4.000000
v 1.000000 1.998874 5.000000
v -1.000000 1.998874 5.000000
vn -0.000000 0.000000 -1.000000
vn 1.000000 0.000000 0.000000
vn 0.000000 0.000000 1.000000
vn -1.000000 0.000000 0.000000
vn 0.000000 -1.000000 0.000000
vn 0.000000 1.000000 0.000000
usemtl Beton
s off
f 117//85 118//85 114//85 113//85
f 118//86 119//86 115//86 114//86
f 119//87 120//87 116//87 115//87
f 120//88 117//88 113//88 116//88
f 113//89 114//89 115//89 116//89
f 120//90 119//90 118//90 117//90
o Cube.008_Cube.009
v -4.800000 0.000000 4.599999
v -4.800000 0.000000 2.599999
v -3.800000 0.000000 2.599999
v -3.800000 0.000000 4.599999
v -4.800000 2.000000 4.599999
v -4.800000 2.000000 2.599999
v -3.800000 2.000000 2.599999
v -3.800000 2.000000 4.599999
vn -1.000000 0.000000 0.000000
vn 0.000000 0.000000 -1.000000
vn 1.000000 0.000000 0.000000
vn 0.000000 0.000000 1.000000
vn 0.000000 -1.000000 0.000000
vn 0.000000 1.000000 0.000000
usemtl Beton
s off
f 125//91 126//91 122//91 121//91
f 126//92 127//92 123//92 122//92
f 127//93 128//93 124//93 123//93
f 128//94 125//94 121//94 124//94
f 121//95 122//95 123//95 124//95
f 128//96 127//96 126//96 125//96
o Cube.007_Cube.008
v -2.900000 0.000000 -0.400000
v -2.900000 0.000000 -2.400000
v -1.900000 0.000000 -2.400000
v -1.900000 0.000000 -0.400000
v -2.900000 3.000000 -0.400000
v -2.900000 3.000000 -2.400000
v -1.900000 3.000000 -2.400000
v -1.900000 3.000000 -0.400000
vn -1.000000 0.000000 0.000000
vn 0.000000 0.000000 -1.000000
vn 1.000000 0.000000 0.000000
vn 0.000000 0.000000 1.000000
vn 0.000000 -1.000000 0.000000
vn 0.000000 1.000000 0.000000
usemtl Beton
s off
f 133//97 134//97 130//97 129//97
f 134//98 135//98 131//98 130//98
f 135//99 136//99 132//99 131//99
f 136//100 133//100 129//100 132//100
f 129//101 130//101 131//101 132//101
f 136//102 135//102 134//102 133//102
o Cube.006_Cube.007
v -5.300000 0.000000 2.200000
v -5.300000 0.000000 0.200000
v -4.300000 0.000000 0.200000
v -4.300000 0.000000 2.200000
v -5.300000 3.000000 2.200000
v -5.300000 3.000000 0.200000
v -4.300000 3.000000 0.200000
v -4.300000 3.000000 2.200000
vn -1.000000 0.000000 0.000000
vn 0.000000 0.000000 -1.000000
vn 1.000000 0.000000 0.000000
vn 0.000000 0.000000 1.000000
vn 0.000000 -1.000000 0.000000
vn 0.000000 1.000000 0.000000
usemtl Beton
s off
f 141//103 142//103 138//103 137//103
f 142//104 143//104 139//104 138//104
f 143//105 144//105 140//105 139//105
f 144//106 141//106 137//106 140//106
f 137//107 138//107 139//107 140//107
f 144//108 143//108 142//108 141//108
o Cube.004_Cube.005
v -5.400000 0.000000 -0.200000
v -5.400000 0.000000 -3.200000
v -3.400000 0.000000 -3.200000
v -3.400000 0.000000 -0.200000
v -5.400000 4.000000 -0.200000
v -5.400000 4.000000 -3.200000
v -3.400000 4.000000 -3.200000
v -3.400000 4.000000 -0.200000
vn -1.000000 0.000000 0.000000
vn 0.000000 0.000000 -1.000000
vn 1.000000 0.000000 0.000000
vn 0.000000 0.000000 1.000000
vn 0.000000 -1.000000 0.000000
vn 0.000000 1.000000 0.000000
usemtl Beton
s off
f 149//109 150//109 146//109 145//109
f 150//110 151//110 147//110 146//110
f 151//111 152//111 148//111 147//111
f 152//112 149//112 145//112 148//112
f 145//113 146//113 147//113 148//113
f 152//114 151//114 150//114 149//114
o Cube.003_Cube.004
v 2.600000 0.000000 4.200000
v 2.600000 0.000000 -0.800000
v 4.600000 0.000000 -0.800000
v 4.600000 0.000000 4.200000
v 2.600000 4.000000 4.200000
v 2.600000 4.000000 -0.800000
v 4.600000 4.000000 -0.800000
v 4.600000 4.000000 4.200000
vn -1.000000 0.000000 0.000000
vn 0.000000 0.000000 -1.000000
vn 1.000000 0.000000 0.000000
vn 0.000000 0.000000 1.000000
vn 0.000000 -1.000000 0.000000
vn 0.000000 1.000000 0.000000
usemtl Beton
s off
f 157//115 158//115 154//115 153//115
f 158//116 159//116 155//116 154//116
f 159//117 160//117 156//117 155//117
f 160//118 157//118 153//118 156//118
f 153//119 154//119 155//119 156//119
f 160//120 159//120 158//120 157//120
o Cube.002_Cube.003
v -1.400000 0.000000 -0.100000
v -1.400000 0.000000 -3.100000
v 1.600000 0.000000 -3.100000
v 1.600000 0.000000 -0.100000
v -1.400000 4.000000 -0.100000
v -1.400000 4.000000 -3.100000
v 1.600000 4.000000 -3.100000
v 1.600000 4.000000 -0.100000
vn -1.000000 0.000000 0.000000
vn 0.000000 0.000000 -1.000000
vn 1.000000 0.000000 0.000000
vn 0.000000 0.000000 1.000000
vn 0.000000 -1.000000 0.000000
vn 0.000000 1.000000 0.000000
usemtl Beton
s off
f 165//121 166//121 162//121 161//121
f 166//122 167//122 163//122 162//122
f 167//123 168//123 164//123 163//123
f 168//124 165//124 161//124 164//124
f 161//125 162//125 163//125 164//125
f 168//126 167//126 166//126 165//126
o Cube.001_Cube.002
v 0.300000 0.000000 3.200000
v 0.300000 0.000000 0.200000
v 2.300000 0.000000 0.200000
v 2.300000 0.000000 3.200000
v 0.300000 6.000000 3.200000
v 0.300000 6.000000 0.200000
v 2.300000 6.000000 0.200000
v 2.300000 6.000000 3.200000
vn -1.000000 0.000000 0.000000
vn 0.000000 0.000000 -1.000000
vn 1.000000 0.000000 0.000000
vn 0.000000 0.000000 1.000000
vn 0.000000 -1.000000 0.000000
vn 0.000000 1.000000 0.000000
usemtl Beton
s off
f 173//127 174//127 170//127 169//127
f 174//128 175//128 171//128 170//128
f 175//129 176//129 172//129 171//129
f 176//130 173//130 169//130 172//130
f 169//131 170//131 171//131 172//131
f 176//132 175//132 174//132 173//132
o Cube_Cube.001
v -3.400000 0.000000 3.200000
v -3.400000 0.000000 0.200000
v -1.400000 0.000000 0.200000
v -1.400000 0.000000 3.200000
v -3.400000 4.000000 3.200000
v -3.400000 4.000000 0.200000
v -1.400000 4.000000 0.200000
v -1.400000 4.000000 3.200000
vn -1.000000 0.000000 0.000000
vn 0.000000 0.000000 -1.000000
vn 1.000000 0.000000 0.000000
vn 0.000000 0.000000 1.000000
vn 0.000000 -1.000000 0.000000
vn 0.000000 1.000000 0.000000
usemtl Beton
s off
f 181//133 182//133 178//133 177//133
f 182//134 183//134 179//134 178//134
f 183//135 184//135 180//135 179//135
f 184//136 181//136 177//136 180//136
f 177//137 178//137 179//137 180//137
f 184//138 183//138 182//138 181//138
