P2
4 4
17
 1  9  3 11
13  5 15  7
 4 12  2 10
16  8 14  6

